<?xml version="1.0" standalone="no"?>
<!DOCTYPE svg PUBLIC "-//W3C//DTD SVG 20010904//EN"
 "http://www.w3.org/TR/2001/REC-SVG-20010904/DTD/svg10.dtd">
<svg version="1.0" xmlns="http://www.w3.org/2000/svg"
 width="500.000000pt" height="500.000000pt" viewBox="0 0 500.000000 500.000000"
 preserveAspectRatio="xMidYMid meet">
<metadata>
Created by potrace 1.16, written by Peter Selinger 2001-2019
</metadata>
<g transform="translate(0.000000,500.000000) scale(0.100000,-0.100000)"
fill="#000000" stroke="none">
<path d="M1475 3294 c-88 -52 -168 -97 -177 -100 -36 -11 -16 -31 95 -94 61
-35 140 -81 175 -102 34 -21 67 -38 72 -38 12 0 14 416 3 423 -5 3 -80 -37
-168 -89z"/>
<path d="M1353 2941 c-23 -16 -44 -26 -48 -23 -4 4 -5 0 -3 -8 2 -8 -3 -14
-11 -12 -13 3 -101 -44 -101 -54 0 -3 16 4 35 16 20 12 42 20 49 17 8 -3 24 5
37 19 23 24 79 57 86 50 2 -1 2 -89 1 -194 l-3 -190 -115 68 c-63 38 -139 81
-168 96 l-53 28 23 18 c13 10 30 15 38 12 8 -3 11 -2 7 2 -4 4 1 13 11 20 22
17 35 18 26 2 -4 -7 -3 -9 1 -5 11 9 16 39 7 35 -75 -35 -132 -72 -137 -88
-12 -38 5 -834 18 -847 7 -6 152 -91 322 -189 171 -97 327 -188 347 -201 21
-12 42 -23 46 -23 12 0 661 373 691 397 15 12 22 26 18 36 -5 14 -135 95 -282
177 l-61 33 -181 -105 -181 -105 -166 96 c-91 53 -170 101 -176 107 -11 11
-20 424 -9 424 10 0 321 180 341 198 17 14 17 16 -5 27 -12 7 -94 53 -182 103
-88 51 -164 92 -170 92 -5 -1 -29 -14 -52 -29z"/>
</g>
</svg>
