<?xml version="1.0" standalone="no"?>
<!DOCTYPE svg PUBLIC "-//W3C//DTD SVG 20010904//EN"
 "http://www.w3.org/TR/2001/REC-SVG-20010904/DTD/svg10.dtd">
<svg version="1.0" xmlns="http://www.w3.org/2000/svg"
 width="500.000000pt" height="500.000000pt" viewBox="0 0 500.000000 500.000000"
 preserveAspectRatio="xMidYMid meet">
<metadata>
Created by potrace 1.16, written by Peter Selinger 2001-2019
</metadata>
<g transform="translate(0.000000,500.000000) scale(0.100000,-0.100000)"
fill="#000000" stroke="none">
<path d="M1461 3286 c-96 -56 -176 -106 -178 -112 -2 -5 47 -39 109 -74 62
-35 141 -81 176 -102 34 -21 67 -38 72 -38 12 0 14 416 3 423 -5 3 -86 -41
-182 -97z"/>
<path d="M1353 2941 c-23 -16 -44 -27 -48 -23 -4 4 -5 1 -3 -7 2 -8 -6 -14
-17 -15 -11 -1 -29 -8 -40 -15 -19 -11 -19 -12 3 -6 13 4 30 1 39 -7 9 -7 14
-8 10 -2 -7 12 30 50 76 79 l27 17 0 -201 0 -202 -21 13 c-12 7 -33 20 -48 28
-22 12 -104 60 -171 100 -126 74 -118 71 -125 49 -12 -36 6 -838 19 -848 9 -8
94 -57 321 -186 174 -99 362 -209 373 -217 19 -16 1 -26 559 298 191 110 220
120 378 128 84 4 132 11 137 19 11 17 10 95 -2 102 -5 3 -20 -10 -32 -29 -26
-40 -67 -61 -102 -52 -28 7 -36 37 -36 141 0 57 3 74 16 79 31 12 71 6 89 -14
25 -27 35 -17 35 36 0 47 -16 58 -40 29 -8 -9 -30 -15 -56 -15 l-44 0 1 68 c2
119 12 133 89 112 33 -9 42 -16 47 -40 3 -17 12 -30 19 -30 14 0 22 22 26 75
l3 30 -145 7 c-80 4 -154 12 -166 17 -13 6 -26 6 -35 0 -11 -8 -8 -14 15 -33
l28 -24 -4 -105 c-2 -69 -8 -110 -17 -121 -11 -13 -12 -21 -2 -39 7 -14 11
-53 9 -101 -4 -93 -19 -112 -66 -85 -15 8 -91 53 -170 98 -78 46 -148 81 -155
78 -7 -2 -89 -49 -183 -104 l-172 -100 -138 80 c-77 44 -156 91 -177 106 l-38
26 -2 208 c-1 114 1 207 4 207 9 0 294 165 332 192 l28 20 -23 12 c-13 7 -95
54 -183 104 -89 51 -166 92 -171 92 -6 0 -29 -13 -51 -29z"/>
<path d="M3670 2458 c0 -7 8 -18 19 -25 26 -16 70 -236 51 -258 -11 -13 -10
-18 7 -30 14 -10 24 -35 33 -90 16 -92 32 -114 86 -122 68 -9 77 2 90 112 8
70 16 99 29 108 14 11 15 15 3 25 -12 10 -12 26 -1 114 9 64 20 107 29 114 25
20 15 34 -24 34 -46 0 -57 -8 -38 -29 12 -14 10 -42 -12 -198 -14 -101 -28
-183 -32 -183 -7 0 -60 321 -60 361 0 15 7 32 15 39 28 23 15 28 -75 29 -49 1
-96 4 -105 7 -9 4 -15 1 -15 -8z"/>
<path d="M2920 2430 c0 -6 10 -20 21 -29 19 -15 22 -31 27 -114 4 -84 2 -100
-13 -117 -16 -18 -17 -22 -3 -37 20 -23 13 -166 -8 -184 -25 -21 -15 -29 33
-26 45 3 66 18 44 32 -7 4 -11 59 -10 148 l0 142 56 -110 c64 -127 93 -167
138 -195 38 -23 93 -27 101 -6 3 8 -2 29 -12 48 -21 40 -24 129 -5 152 11 13
11 20 3 28 -8 8 -12 52 -12 120 0 87 3 110 15 114 8 4 15 12 15 20 0 10 -14
14 -50 14 -36 0 -50 -4 -50 -14 0 -8 7 -16 15 -20 12 -4 15 -30 15 -148 0 -79
-4 -149 -9 -156 -5 -9 -22 21 -51 93 -45 113 -95 189 -144 223 -38 26 -116 41
-116 22z"/>
<path d="M3410 2421 c0 -5 7 -14 15 -21 12 -10 15 -36 15 -116 0 -87 -3 -104
-17 -113 -17 -9 -17 -10 0 -28 23 -26 25 -164 2 -183 -32 -27 -16 -36 64 -35
86 1 100 5 76 25 -22 18 -21 166 1 192 16 16 16 18 0 24 -13 5 -16 23 -16 104
0 107 5 130 26 130 8 0 14 7 14 15 0 12 -17 15 -90 15 -49 0 -90 -4 -90 -9z"/>
</g>
</svg>
